<svg xmlns="http://www.w3.org/2000/svg" width="41.491" height="41.481" viewBox="0 0 41.491 41.481">
  <path id="Icon_awesome-instagram" data-name="Icon awesome-instagram" d="M20.745,12.343A10.635,10.635,0,1,0,31.38,22.978,10.618,10.618,0,0,0,20.745,12.343Zm0,17.549a6.914,6.914,0,1,1,6.914-6.914A6.927,6.927,0,0,1,20.745,29.892ZM34.3,11.908a2.481,2.481,0,1,1-2.481-2.481A2.475,2.475,0,0,1,34.3,11.908Zm7.044,2.518c-.157-3.323-.916-6.266-3.351-8.691S32.62,2.55,29.3,2.383c-3.425-.194-13.69-.194-17.115,0-3.314.157-6.257.916-8.692,3.341S.307,11.093.141,14.416c-.194,3.425-.194,13.69,0,17.114.157,3.323.916,6.266,3.351,8.691s5.369,3.184,8.692,3.351c3.425.194,13.69.194,17.115,0,3.323-.157,6.266-.916,8.692-3.351s3.184-5.368,3.351-8.691c.194-3.425.194-13.68,0-17.105Zm-4.424,20.78a7,7,0,0,1-3.943,3.943c-2.731,1.083-9.21.833-12.227.833s-9.506.241-12.227-.833a7,7,0,0,1-3.943-3.943C3.491,32.475,3.741,26,3.741,22.978s-.241-9.506.833-12.227A7,7,0,0,1,8.517,6.808c2.731-1.083,9.21-.833,12.227-.833s9.506-.241,12.227.833a7,7,0,0,1,3.943,3.943c1.083,2.731.833,9.21.833,12.227S38,32.484,36.915,35.205Z" transform="translate(0.005 -2.238)" fill="#fafafa"/>
</svg>
