<svg xmlns="http://www.w3.org/2000/svg" width="239.742" height="80.697" viewBox="0 0 239.742 80.697">
  <path id="Trazado_4492" data-name="Trazado 4492" d="M22.021,76.3A40.66,40.66,0,0,1,8.075,64.566C13.68,51.659,21.792,38.926,29.718,27.083a.542.542,0,0,1,.47-.24,1.106,1.106,0,0,1,.829.463.831.831,0,0,1,.161.748c-.125.4-.248.8-.378,1.214v.019c-3.985,12.9-8.934,28.973-.983,34.574a5.03,5.03,0,0,0,2.95.964c2.623,0,5.736-2.041,9.524-6.249a157.966,157.966,0,0,0,10.481-13.8c2.8-3.974,5.7-8.073,8.489-11.5a.425.425,0,0,1,.329-.154.828.828,0,0,1,.649.409.559.559,0,0,1,.061.556c-3.545,7.2-8.012,17.252-10.407,23.061-.353.922-.675,1.808-.958,2.636v0a36.188,36.188,0,0,0-1.064,3.708,17.6,17.6,0,0,0,4.021,14.731c.037.038.075.074.106.107A40.47,40.47,0,0,1,22.021,76.3Zm199.467,1.218a29.171,29.171,0,0,1-4.507-.908,11.805,11.805,0,0,1-3.6-1.654,3.088,3.088,0,0,1-1.459-2.594,5.648,5.648,0,0,1,.227-1.427,5.979,5.979,0,0,1,.713-1.621,5.32,5.32,0,0,1,1.167-1.329,2.544,2.544,0,0,1,1.654-.551,2.721,2.721,0,0,1,1.427.389q.648.389,1.524.811a15.034,15.034,0,0,0,2.172.811,12.324,12.324,0,0,0,3.437.389,9.813,9.813,0,0,0,2.886-.389,1.662,1.662,0,0,0,1.265-1.751,2.322,2.322,0,0,0-1.038-1.978,12.807,12.807,0,0,0-2.626-1.394q-1.589-.648-3.437-1.394a14.343,14.343,0,0,1-3.437-1.978,9.869,9.869,0,0,1-2.626-3.145,10.37,10.37,0,0,1-1.038-4.961,11.048,11.048,0,0,1,1.329-5.609,11.177,11.177,0,0,1,3.437-3.729,14.088,14.088,0,0,1,4.766-2.043,23.484,23.484,0,0,1,5.317-.616q5.512,0,8.106,2.172a6.913,6.913,0,0,1,2.594,5.544,5.343,5.343,0,0,1-1.783,4.345,7.84,7.84,0,0,1-5.155,1.491,2.654,2.654,0,0,1-1.232-.195.762.762,0,0,1-.324-.713,10.388,10.388,0,0,0-.1-1.329,4.232,4.232,0,0,0-.454-1.427,2.913,2.913,0,0,0-1.1-1.135,4.07,4.07,0,0,0-2.107-.454,4.557,4.557,0,0,0-2.918.875,2.673,2.673,0,0,0-1.1,2.172,2.539,2.539,0,0,0,1.135,2.172,14.472,14.472,0,0,0,2.853,1.524q1.719.713,3.729,1.459a15.8,15.8,0,0,1,3.729,1.978,10.513,10.513,0,0,1,2.853,3.08A8.995,8.995,0,0,1,238.9,67.18a9.84,9.84,0,0,1-3.307,7.652q-3.307,2.983-9.921,2.983A34.645,34.645,0,0,1,221.488,77.523ZM190.513,77.1a13.468,13.468,0,0,1-5.058-2.464,13.119,13.119,0,0,1-3.664-4.669,16.64,16.64,0,0,1-1.427-7.328,34.981,34.981,0,0,1,.259-3.891,25.473,25.473,0,0,1,1.005-4.669,24.7,24.7,0,0,1,2.075-4.766,16.19,16.19,0,0,1,3.469-4.247,16.957,16.957,0,0,1,5.188-3.048,20.308,20.308,0,0,1,7.263-1.167,18.2,18.2,0,0,1,5.706.778,10.132,10.132,0,0,1,3.761,2.107,7.937,7.937,0,0,1,2.075,3.08,10.741,10.741,0,0,1,.648,3.761,9.955,9.955,0,0,1-1.2,5.058,11.145,11.145,0,0,1-3.113,3.469,15.459,15.459,0,0,1-4.248,2.172,34.461,34.461,0,0,1-4.6,1.2,31.918,31.918,0,0,1-4.183.519q-1.913.1-2.95.1a8.494,8.494,0,0,0,.356,2.432,6.262,6.262,0,0,0,1.07,2.107,5.435,5.435,0,0,0,1.88,1.491,6.334,6.334,0,0,0,2.853.584,5.218,5.218,0,0,0,2.626-.551,5.929,5.929,0,0,0,1.524-1.232q.584-.681,1.005-1.232a1.355,1.355,0,0,1,1.135-.551,6.839,6.839,0,0,1,1.135.162,5.066,5.066,0,0,1,1.653.681,5.171,5.171,0,0,1,1.491,1.427,3.923,3.923,0,0,1,.648,2.334,4.82,4.82,0,0,1-1.167,3.242,8.594,8.594,0,0,1-3.015,2.2,16.675,16.675,0,0,1-4.118,1.232,26.086,26.086,0,0,1-4.41.389A23.056,23.056,0,0,1,190.513,77.1Zm4.474-26.814A6.829,6.829,0,0,0,193.3,52.33a10.779,10.779,0,0,0-1.037,2.724q-.357,1.492-.551,2.853a14.668,14.668,0,0,0,6.517-1.362,4.031,4.031,0,0,0,2.5-3.7,3.7,3.7,0,0,0-.811-2.334,2.972,2.972,0,0,0-2.5-1.038A3.752,3.752,0,0,0,194.987,50.288ZM167,75.675q-1.751-2.14-1.751-7.068,0-.778.1-1.945t.259-3.015q.162-1.848.421-4.572t.551-6.614q.292-3.891.648-9.143t.746-12.191a3.271,3.271,0,0,1,.324-1.686,1.693,1.693,0,0,1,1.038-.195h2.529a9.927,9.927,0,0,1,3.242.454,5.406,5.406,0,0,1,2.075,1.232,4.409,4.409,0,0,1,1.1,1.783,6.817,6.817,0,0,1,.324,2.107q0,1.3-.162,3.729t-.421,5.479q-.259,3.048-.519,6.355t-.519,6.322q-.259,3.015-.421,5.415t-.162,3.631a3.676,3.676,0,0,0,.616,2.4,3.556,3.556,0,0,0,1.329,1.005,6.02,6.02,0,0,0,1.329.389q.616.1.616.422a12.406,12.406,0,0,1-.324,2.821,6.762,6.762,0,0,1-1.167,2.529,5.91,5.91,0,0,1-2.3,1.816,8.843,8.843,0,0,1-3.729.681Q168.75,77.815,167,75.675Zm-9.619,2.14a10.568,10.568,0,0,1-3.275-.421,4.848,4.848,0,0,1-2.01-1.2,4.231,4.231,0,0,1-1.037-1.913,10.6,10.6,0,0,1-.292-2.626q0-.973.1-2.756t.357-4.928q.259-3.145.616-7.976t.875-11.964a3.27,3.27,0,0,1,.324-1.686,1.692,1.692,0,0,1,1.037-.195H156.6a11.4,11.4,0,0,1,3.275.389,4.589,4.589,0,0,1,2.01,1.167,4.232,4.232,0,0,1,1.037,1.881,9.63,9.63,0,0,1,.292,2.464q0,.973-.13,2.918t-.357,5.285q-.227,3.34-.616,8.3t-.973,11.964a1.712,1.712,0,0,1-.324,1.038,1.631,1.631,0,0,1-1.1.259Zm-68.8-1.265a11.79,11.79,0,0,1-4.7-3.469,13.13,13.13,0,0,1-2.464-5.155A26.846,26.846,0,0,1,80.7,61.6a31.037,31.037,0,0,1,.94-7.619,17.771,17.771,0,0,1,3.21-6.647,16.4,16.4,0,0,1,6-4.7,21.516,21.516,0,0,1,9.305-1.783q8.17,0,11.7,3.988t3.534,11.186a37.535,37.535,0,0,1-.292,4.442A24,24,0,0,1,114,65.3a22.942,22.942,0,0,1-2.2,4.669,15.985,15.985,0,0,1-3.534,4.02,16.561,16.561,0,0,1-5.155,2.788A21.859,21.859,0,0,1,96,77.815,18.93,18.93,0,0,1,88.576,76.55Zm6.549-25.809a8.131,8.131,0,0,0-2.2,3.048,13.759,13.759,0,0,0-.973,3.761,30.073,30.073,0,0,0-.227,3.34q0,4.28,1.362,6.29a4.42,4.42,0,0,0,3.891,2.01,5.111,5.111,0,0,0,3.729-1.427,9.938,9.938,0,0,0,2.27-3.437,17.293,17.293,0,0,0,1.1-4.215,29.023,29.023,0,0,0,.292-3.7,9.286,9.286,0,0,0-1.2-5.09,4.531,4.531,0,0,0-4.118-1.848A5.783,5.783,0,0,0,95.125,50.742Zm34.552,27a4.265,4.265,0,0,1-3.7-1.751,7.411,7.411,0,0,1-.973-1.783q-.389-1-.713-2.108-1.881-6.484-3.275-11.121t-2.367-7.749q-.973-3.113-1.556-4.961t-.908-2.853q-.324-1-.454-1.362a1.783,1.783,0,0,1-.13-.486,1.741,1.741,0,0,1,.648-.973,2.161,2.161,0,0,1,1.491-.519,48.567,48.567,0,0,1,5.09.227,12.681,12.681,0,0,1,3.5.811,4.868,4.868,0,0,1,2.14,1.621,6.841,6.841,0,0,1,1.07,2.724l.259,1.816q.194,1.362.421,3.275t.551,4.215q.324,2.3.616,4.6t.584,4.442q.292,2.14.551,3.7.778-2.724,1.459-5.382t1.362-5.674q.681-3.015,1.492-6.614t1.913-8.2a2,2,0,0,1,.584-1.2,3.169,3.169,0,0,1,1.686-.292q.973,0,2.594.065a15.645,15.645,0,0,1,3.177.454,8.253,8.253,0,0,1,2.691,1.167,2.459,2.459,0,0,1,1.135,2.14,13.65,13.65,0,0,1-.778,3.567q-.778,2.464-2.01,5.609t-2.756,6.582q-1.524,3.437-2.95,6.485t-2.659,5.35q-1.232,2.3-1.816,3.21a2.216,2.216,0,0,1-.908.843,4.548,4.548,0,0,1-1.3.13Zm-73.5-.839c.774-2.884,1.647-6.149,2.81-9.33.012-.026.025-.062.043-.112s.032-.081.05-.123a312.883,312.883,0,0,1,13.5-34.878c.439-.972.947-1.948,1.436-2.9a27.312,27.312,0,0,0,2.734-6.658A40.368,40.368,0,0,1,56,77.547ZM2.481,54.32A40.358,40.358,0,0,1,67.944,10.91c-2.513,3.779-5.607,7.964-8.327,11.658l-.416.551c-2.555,3.39-5.216,6.791-7.784,10.078-5.11,6.539-10.4,13.308-15.351,20.51a.616.616,0,0,1-.519.268,1.223,1.223,0,0,1-.9-.485.991.991,0,0,1-.235-.829c2.469-11.62,4.819-20.567,7.1-29.211.507-1.912,1.027-3.886,1.54-5.867a12.827,12.827,0,0,0,.285-8.555A14.118,14.118,0,0,0,40.237,3.9a5.065,5.065,0,0,0-3.471-1.549,2.842,2.842,0,0,0-.941.15,1.557,1.557,0,0,0-.81.6c-1.727,2.594-3.639,5.316-5.854,8.328C23.4,18.929,12.684,33.382,5.7,46.042l-.4.767A25.416,25.416,0,0,0,2.616,53.5c-.055.269-.093.546-.129.817ZM152.776,34.5a4.931,4.931,0,0,1,1.881-4.085,7.915,7.915,0,0,1,5.058-1.491,5.973,5.973,0,0,1,4.053,1.135,3.854,3.854,0,0,1,1.265,3.015,5.117,5.117,0,0,1-1.783,3.988,7.615,7.615,0,0,1-5.22,1.589Q152.777,38.648,152.776,34.5ZM99.819,37.811c-.082,0-.119-.071-.13-.213-.019-.2-.361-4.927.5-6.315a3.085,3.085,0,1,1,5.233,3.269c-.868,1.386-5.269,3.15-5.454,3.224a.449.449,0,0,1-.147.036Zm8.915-12.036a10.361,10.361,0,0,1-1.675-.339,4.186,4.186,0,0,1-1.33-.611,1.135,1.135,0,0,1-.545-.96,2.048,2.048,0,0,1,.088-.528,2.193,2.193,0,0,1,.262-.6,2.077,2.077,0,0,1,.431-.493.968.968,0,0,1,.617-.206,1.039,1.039,0,0,1,.528.144c.159.1.349.2.565.3a5.536,5.536,0,0,0,.806.3,4.461,4.461,0,0,0,1.269.144,3.6,3.6,0,0,0,1.074-.144.61.61,0,0,0,.467-.647.865.865,0,0,0-.386-.735,5.1,5.1,0,0,0-.97-.513l-1.278-.518a5.2,5.2,0,0,1-1.269-.735,3.528,3.528,0,0,1-.976-1.163,3.829,3.829,0,0,1-.386-1.836,4.081,4.081,0,0,1,.493-2.08,4.148,4.148,0,0,1,1.274-1.382,5.226,5.226,0,0,1,1.767-.759,8.837,8.837,0,0,1,1.973-.227,4.586,4.586,0,0,1,3,.808,2.554,2.554,0,0,1,.965,2.052,1.979,1.979,0,0,1-.662,1.609,2.908,2.908,0,0,1-1.911.554,1,1,0,0,1-.457-.073.293.293,0,0,1-.118-.266,4.554,4.554,0,0,0-.036-.493,1.532,1.532,0,0,0-.169-.523,1.092,1.092,0,0,0-.411-.424,1.492,1.492,0,0,0-.781-.167,1.68,1.68,0,0,0-1.078.323.99.99,0,0,0-.41.806.944.944,0,0,0,.42.8,5.241,5.241,0,0,0,1.059.564c.426.181.883.361,1.382.546a5.557,5.557,0,0,1,1.381.735,3.863,3.863,0,0,1,1.058,1.14,3.31,3.31,0,0,1,.422,1.767,3.66,3.66,0,0,1-1.228,2.835,5.346,5.346,0,0,1-3.677,1.1A13.006,13.006,0,0,1,108.734,25.775ZM95.4,25.414a4.357,4.357,0,0,1-1.742-1.288,4.787,4.787,0,0,1-.914-1.9,9.809,9.809,0,0,1-.267-2.348,11.636,11.636,0,0,1,.349-2.825,6.586,6.586,0,0,1,1.192-2.461,5.993,5.993,0,0,1,2.224-1.741,7.976,7.976,0,0,1,3.445-.662q3.029,0,4.336,1.479a6.021,6.021,0,0,1,1.315,4.147,13.031,13.031,0,0,1-.113,1.644,8.949,8.949,0,0,1-.406,1.79A8.607,8.607,0,0,1,104,22.977a5.953,5.953,0,0,1-1.309,1.489,6.2,6.2,0,0,1-1.912,1.033,8.163,8.163,0,0,1-2.634.385A7.046,7.046,0,0,1,95.4,25.414Zm2.424-9.561A3,3,0,0,0,97,16.977a5.263,5.263,0,0,0-.36,1.4,10.96,10.96,0,0,0-.082,1.236,4.273,4.273,0,0,0,.5,2.333,1.641,1.641,0,0,0,1.442.743,1.909,1.909,0,0,0,1.382-.529,3.716,3.716,0,0,0,.837-1.274,6.374,6.374,0,0,0,.411-1.561,10.808,10.808,0,0,0,.107-1.37,3.464,3.464,0,0,0-.441-1.885,1.688,1.688,0,0,0-1.531-.688A2.138,2.138,0,0,0,97.819,15.853ZM86.057,25.641a2.8,2.8,0,0,1-1.921-.528,1.957,1.957,0,0,1-.581-1.516c0-.317.027-.865.073-1.642s.113-1.664.194-2.656.16-2.043.241-3.149.16-2.147.242-3.121.144-1.84.19-2.573.072-1.244.072-1.516c0-.241.128-.359.385-.359h1.32a2.616,2.616,0,0,1,1.864.518,2.065,2.065,0,0,1,.514,1.526,1.364,1.364,0,0,1-.011.215,1.429,1.429,0,0,0-.01.215l-.8,11.223h4.324a.482.482,0,0,1,.267.083.3.3,0,0,1,.118.256l-.093,1.418a2.075,2.075,0,0,1-.4,1.165,1.775,1.775,0,0,1-1.428.442Z" fill="#f5f5f7"/>
</svg>
