<svg xmlns="http://www.w3.org/2000/svg" xmlns:xlink="http://www.w3.org/1999/xlink" width="702.781" height="1393.536" viewBox="0 0 702.781 1393.536">
  <defs>
    <filter id="Rect치ngulo_4874" x="0" y="0" width="702.781" height="1393.536" filterUnits="userSpaceOnUse">
      <feOffset dy="3" input="SourceAlpha"/>
      <feGaussianBlur stdDeviation="14.5" result="blur"/>
      <feFlood flood-color="#056cd8"/>
      <feComposite operator="in" in2="blur"/>
      <feComposite in="SourceGraphic"/>
    </filter>
  </defs>
  <g transform="matrix(1, 0, 0, 1, 0, 0)" filter="url(#Rect치ngulo_4874)">
    <g id="Rect치ngulo_4874-2" data-name="Rect치ngulo 4874" fill="none">
      <path d="M124.821,94.885,445,49.887a56.511,56.511,0,0,1,25.715,2.342A63.855,63.855,0,0,1,492.964,65.2a75.426,75.426,0,0,1,16.623,21.388,85.128,85.128,0,0,1,8.87,27.8l130.081,925.571a101.286,101.286,0,0,1-.616,30.93,117.175,117.175,0,0,1-9.405,29.967,108.829,108.829,0,0,1-16.792,25.835,81.827,81.827,0,0,1-22.809,18.335l-303.921,160.7a74.456,74.456,0,0,1-30.319,8.972,53.478,53.478,0,0,1-26.955-5.2,52.274,52.274,0,0,1-20.47-18.233c-5.4-8.113-9.164-18.155-10.811-29.871L56.016,191.081a88.274,88.274,0,0,1,1.829-34.037A86.9,86.9,0,0,1,71.6,127.53a82.234,82.234,0,0,1,23.172-21.721A77.085,77.085,0,0,1,124.821,94.885Z" stroke="none"/>
      <path d="M 598.9808959960938 1145.493896484375 L 295.0668029785156 1306.245239257812 C 293.7892456054688 1306.9208984375 292.5058288574219 1307.561645507812 291.2188415527344 1308.166015625 C 289.9307861328125 1308.770629882812 288.63916015625 1309.33935546875 287.34619140625 1309.870849609375 C 286.0521545410156 1310.402709960938 284.7568054199219 1310.897216796875 283.46240234375 1311.353637695312 C 282.1669616699219 1311.810180664062 280.8724670410156 1312.228637695312 279.5812377929688 1312.60791015625 C 278.3217468261719 1312.9775390625 277.0615539550781 1313.31103515625 275.8027954101562 1313.607788085938 C 274.5431213378906 1313.904907226562 273.2848815917969 1314.165283203125 272.0303955078125 1314.388305664062 C 270.77490234375 1314.611450195312 269.523193359375 1314.797729492188 268.27734375 1314.946166992188 C 267.0306396484375 1315.0947265625 265.7898559570312 1315.205810546875 264.5572204589844 1315.278564453125 C 263.3461608886719 1315.349975585938 262.139892578125 1315.384643554688 260.9405822753906 1315.382934570312 C 259.7404479980469 1315.381103515625 258.5472412109375 1315.342895507812 257.3630981445312 1315.268188476562 C 256.1781311035156 1315.193481445312 255.0022277832031 1315.081909179688 253.8375244140625 1314.93408203125 C 252.6720428466797 1314.7861328125 251.5177764892578 1314.601684570312 250.3768463134766 1314.380981445312 C 249.2460021972656 1314.162109375 248.1258239746094 1313.907104492188 247.0181732177734 1313.616455078125 C 245.9098358154297 1313.32568359375 244.8140869140625 1312.999145507812 243.7328643798828 1312.637817382812 C 242.6509857177734 1312.276000976562 241.5836334228516 1311.879028320312 240.5328063964844 1311.447998046875 C 239.4813385009766 1311.016479492188 238.4464263916016 1310.550537109375 237.4299774169922 1310.050659179688 C 236.4128875732422 1309.550537109375 235.4122619628906 1309.015625 234.4296417236328 1308.446533203125 C 233.4465789794922 1307.87744140625 232.4815979003906 1307.2744140625 231.5364532470703 1306.638793945312 C 230.5908203125 1306.002563476562 229.6650543212891 1305.333862304688 228.7608489990234 1304.63330078125 C 227.8561859130859 1303.932250976562 226.9731292724609 1303.19970703125 226.1133880615234 1302.436767578125 C 225.2449798583984 1301.666015625 224.3984527587891 1300.8623046875 223.5751647949219 1300.027465820312 C 222.7515869140625 1299.192138671875 221.9513092041016 1298.325561523438 221.1757049560547 1297.429077148438 C 220.3998413085938 1296.532592773438 219.6487274169922 1295.606079101562 218.9237670898438 1294.65185546875 C 218.1985015869141 1293.697021484375 217.4994506835938 1292.7138671875 216.8279571533203 1291.704223632812 C 216.1438293457031 1290.675659179688 215.486572265625 1289.617065429688 214.8572692871094 1288.529907226562 C 214.2277984619141 1287.442749023438 213.6262664794922 1286.327514648438 213.0537567138672 1285.185913085938 C 212.4810943603516 1284.044189453125 211.9374389648438 1282.876342773438 211.4238891601562 1281.684326171875 C 210.91015625 1280.492065429688 210.4265747070312 1279.27587890625 209.9740905761719 1278.037719726562 C 209.509765625 1276.766967773438 209.0768280029297 1275.468994140625 208.6758422851562 1274.146484375 C 208.2748413085938 1272.823974609375 207.9057922363281 1271.4765625 207.5693359375 1270.107055664062 C 207.2328796386719 1268.737426757812 206.9290313720703 1267.345703125 206.6584320068359 1265.934326171875 C 206.3878021240234 1264.522827148438 206.1504058837891 1263.091552734375 205.9468536376953 1261.643188476562 L 55.50114440917969 191.1665191650391 C 55.29758834838867 189.7181243896484 55.1295051574707 188.2641448974609 54.99698257446289 186.8070983886719 C 54.86446762084961 185.3501434326172 54.76753616333008 183.8902130126953 54.7062873840332 182.4299468994141 C 54.6450309753418 180.9697570800781 54.61946487426758 179.5092620849609 54.62966537475586 178.0510711669922 C 54.63987350463867 176.5930480957031 54.68584060668945 175.1373748779297 54.76767730712891 173.6866607666016 C 54.84745025634766 172.2729187011719 54.96149063110352 170.8596649169922 55.10942459106445 169.4494018554688 C 55.25732040405273 168.0393829345703 55.43908309936523 166.6324157714844 55.65431976318359 165.2309417724609 C 55.86951065063477 163.8298187255859 56.11813735961914 162.4342346191406 56.39981460571289 161.0467071533203 C 56.68141555786133 159.6595611572266 56.99603271484375 158.2804870605469 57.34326934814453 156.9119873046875 C 57.68410873413086 155.5687866210938 58.05720901489258 154.2324371337891 58.46172714233398 152.9052276611328 C 58.86609649658203 151.5784606933594 59.30185699462891 150.2608947753906 59.76815414428711 148.9548034667969 C 60.23427963256836 147.6492462158203 60.73091125488281 146.3551940917969 61.25718688964844 145.0749816894531 C 61.78326034545898 143.7952880859375 62.33894348144531 142.5294799804688 62.92341613769531 141.2798309326172 C 63.50205230712891 140.0426483154297 64.11013031005859 138.8186798095703 64.74640655517578 137.6099700927734 C 65.38237762451172 136.4018096923828 66.04648590087891 135.2089385986328 66.73751068115234 134.0334167480469 C 67.42818450927734 132.8584747314453 68.14571380615234 131.7009124755859 68.88886260986328 130.5627746582031 C 69.63162994384766 129.4252471923828 70.39994812011719 128.3071441650391 71.19261932373047 127.210563659668 C 71.98480987548828 126.1145782470703 72.80291748046875 125.0378570556641 73.64535522460938 123.9821701049805 C 74.48731231689453 122.9270782470703 75.35355377197266 121.8930282592773 76.24246978759766 120.8817901611328 C 77.130859375 119.8711318969727 78.04189300537109 118.8832855224609 78.97396850585938 117.9199829101562 C 79.90547180175781 116.9572677612305 80.85797119140625 116.0191040039062 81.82989501953125 115.1072235107422 C 82.81049346923828 114.1871643066406 83.81302642822266 113.291877746582 84.8355712890625 112.4227981567383 C 85.85745239257812 111.5542831420898 86.89930725097656 110.7119445800781 87.95925140380859 109.8972091674805 C 89.01846313476562 109.0830078125 90.09571838378906 108.2963714599609 91.18914031982422 107.5386962890625 C 92.28181457519531 106.7815704345703 93.39059448242188 106.053352355957 94.51361846923828 105.3554840087891 C 95.65664672851562 104.6452026367188 96.81735992431641 103.9645385742188 97.99362182617188 103.3145065307617 C 99.16902160644531 102.6649475097656 100.3599166870117 102.0459671020508 101.5642242431641 101.4585952758789 C 102.7676010131836 100.8716430664062 103.9843444824219 100.3162460327148 105.2122955322266 99.79338836669922 C 106.4393157958984 99.27093505859375 107.6775283813477 98.78097534179688 108.9248428344727 98.32450103759766 C 110.2035980224609 97.85652923583984 111.4958724975586 97.42234802246094 112.7992858886719 97.02246856689453 C 114.1016693115234 96.62290191650391 115.4151916503906 96.25762176513672 116.7375106811523 95.92714691162109 C 118.0587615966797 95.596923828125 119.3887939453125 95.30145263671875 120.7252731323242 95.04129028320312 C 122.0606918334961 94.78132629394531 123.4025421142578 94.55661010742188 124.7485122680664 94.36766052246094 L 444.9375610351562 49.41847229003906 C 446.0377807617188 49.26403045654297 447.1414794921875 49.14190292358398 448.2468872070312 49.0521125793457 C 449.3515014648438 48.9623908996582 450.4576416015625 48.90495681762695 451.5635986328125 48.87981796264648 C 452.6686706542969 48.85469818115234 453.7734680175781 48.86182022094727 454.8760681152344 48.90120315551758 C 455.977783203125 48.94054794311523 457.077392578125 49.01211547851562 458.1727905273438 49.11589431762695 C 459.23974609375 49.21699523925781 460.305908203125 49.34894180297852 461.3695983886719 49.51131820678711 C 462.4325866699219 49.673583984375 463.4930725097656 49.86624145507812 464.5491638183594 50.0888671875 C 465.6044921875 50.31133651733398 466.6555786132812 50.56373977661133 467.7005004882812 50.84565734863281 C 468.74462890625 51.12738418579102 469.78271484375 51.43859100341797 470.8128051757812 51.77885437011719 C 471.823486328125 52.11273574829102 472.8291015625 52.47543716430664 473.8278503417969 52.86614608764648 C 474.8260803222656 53.25661468505859 475.8174438476562 53.67505645751953 476.8003845214844 54.12068557739258 C 477.7826843261719 54.56604766845703 478.7565002441406 55.0385627746582 479.7201843261719 55.53743743896484 C 480.6833190917969 56.0360221862793 481.63623046875 56.56094360351562 482.5774230957031 57.11142349243164 C 483.5090942382812 57.65633392333984 484.4312744140625 58.22745513916016 485.3423156738281 58.82365417480469 C 486.2528991699219 59.41953659057617 487.1524658203125 60.04047393798828 488.0394287109375 60.68534088134766 C 488.9259033203125 61.32984924316406 489.7999267578125 61.99829483032227 490.6597900390625 62.68950653076172 C 491.5192260742188 63.38038635253906 492.3646545410156 64.09403228759766 493.1945495605469 64.82933044433594 C 494.0240783691406 65.56427764892578 494.8398132324219 66.3223876953125 495.640380859375 67.10218811035156 C 496.4406127929688 67.88164520263672 497.2256774902344 68.68280792236328 497.9944458007812 69.50424194335938 C 498.7628479003906 70.3253173828125 499.5148620605469 71.16667175292969 500.2491760253906 72.02687072753906 C 500.9830932617188 72.88671112060547 501.699462890625 73.76541137695312 502.3968200683594 74.66153717041016 C 503.1006164550781 75.56596374511719 503.7866821289062 76.49015808105469 504.453857421875 77.43244171142578 C 505.1207885742188 78.37438201904297 505.7688293457031 79.33441925048828 506.3971252441406 80.31082916259766 C 507.0251770019531 81.28693389892578 507.6333312988281 82.27944183349609 508.2206115722656 83.28666687011719 C 508.8076477050781 84.29359436035156 509.3738403320312 85.31526184082031 509.9179992675781 86.3499755859375 C 510.4721374511719 87.40360260009766 511.0048217773438 88.47349548339844 511.5154418945312 89.55776214599609 C 512.0260009765625 90.64176177978516 512.5142822265625 91.74015045166016 512.979736328125 92.85101318359375 C 513.4451904296875 93.96164703369141 513.8875732421875 95.08478546142578 514.3062744140625 96.21851348876953 C 514.7250366210938 97.35203552246094 515.1199951171875 98.49619293212891 515.4906616210938 99.64907073974609 C 515.8707275390625 100.8317489624023 516.226318359375 102.0273132324219 516.5567016601562 103.2336349487305 C 516.88720703125 104.4398193359375 517.192626953125 105.6568222045898 517.4725952148438 106.8825149536133 C 517.7525024414062 108.1081161499023 518.0068359375 109.3424606323242 518.2352905273438 110.5834197998047 C 518.463623046875 111.824333190918 518.6660766601562 113.0719375610352 518.842041015625 114.3240966796875 L 648.9057006835938 1039.77490234375 C 649.0816650390625 1041.026977539062 649.2322998046875 1042.291748046875 649.3575439453125 1043.566650390625 C 649.4827270507812 1044.841674804688 649.5824584960938 1046.126953125 649.6565551757812 1047.42041015625 C 649.730712890625 1048.7138671875 649.779296875 1050.015625 649.8020629882812 1051.323120117188 C 649.8248901367188 1052.630859375 649.822021484375 1053.944702148438 649.7932739257812 1055.26220703125 C 649.76513671875 1056.546264648438 649.7125244140625 1057.838134765625 649.6353759765625 1059.134887695312 C 649.5582885742188 1060.43212890625 649.456787109375 1061.734741210938 649.3309326171875 1063.0400390625 C 649.205078125 1064.345703125 649.0550537109375 1065.654663085938 648.8809814453125 1066.96435546875 C 648.706787109375 1068.274047851562 648.5086669921875 1069.585083007812 648.2866821289062 1070.894287109375 C 648.0686645507812 1072.180297851562 647.8271484375 1073.468383789062 647.5625610351562 1074.755859375 C 647.2978515625 1076.043823242188 647.0101318359375 1077.331665039062 646.6998901367188 1078.616821289062 C 646.3895263671875 1079.902587890625 646.0567626953125 1081.185913085938 645.7019653320312 1082.464721679688 C 645.346923828125 1083.743896484375 644.969970703125 1085.0185546875 644.5714111328125 1086.286254882812 C 644.176513671875 1087.542236328125 643.7596435546875 1088.794555664062 643.3216552734375 1090.040649414062 C 642.8834228515625 1091.287353515625 642.424072265625 1092.528076171875 641.9442749023438 1093.760620117188 C 641.4642333984375 1094.993408203125 640.9639282226562 1096.21826171875 640.4439697265625 1097.432739257812 C 639.9237670898438 1098.648071289062 639.3838500976562 1099.852783203125 638.8251953125 1101.045166015625 C 638.2662963867188 1102.238159179688 637.6874389648438 1103.42138671875 637.0897216796875 1104.592529296875 C 636.4916381835938 1105.764404296875 635.8745727539062 1106.924194335938 635.2398071289062 1108.0703125 C 634.6045532226562 1109.216918945312 633.9515380859375 1110.349487304688 633.2816162109375 1111.466186523438 C 632.6113891601562 1112.583618164062 631.92431640625 1113.685180664062 631.2214965820312 1114.76904296875 C 630.511474609375 1115.863525390625 629.783935546875 1116.9423828125 629.0401000976562 1118.003540039062 C 628.2957153320312 1119.065185546875 627.5350952148438 1120.109619140625 626.7593994140625 1121.13427734375 C 625.9832153320312 1122.159790039062 625.1920166015625 1123.165771484375 624.3870849609375 1124.150512695312 C 623.5816650390625 1125.1357421875 622.7625122070312 1126.099853515625 621.9310302734375 1127.041015625 C 621.0835571289062 1128.000122070312 620.2210083007812 1128.9375 619.344970703125 1129.852172851562 C 618.4683227539062 1130.767578125 617.5780639648438 1131.65966796875 616.676025390625 1132.527465820312 C 615.7732543945312 1133.395751953125 614.8583984375 1134.239379882812 613.9330444335938 1135.056884765625 C 613.0072021484375 1135.875122070312 612.0709228515625 1136.667236328125 611.1255493164062 1137.431396484375 C 610.155029296875 1138.216186523438 609.1719970703125 1138.973999023438 608.1784057617188 1139.704223632812 C 607.1840209960938 1140.434814453125 606.178955078125 1141.13720703125 605.1650390625 1141.810546875 C 604.1502685546875 1142.484252929688 603.1265869140625 1143.128784179688 602.0956420898438 1143.743041992188 C 601.0640258789062 1144.357543945312 600.0252075195312 1144.941650390625 598.9808959960938 1145.493896484375 Z M 124.8940582275391 95.40332794189453 C 114.0604553222656 96.92758941650391 103.9928665161133 100.713134765625 95.07086181640625 106.2687530517578 C 86.09837341308594 111.855827331543 78.29425811767578 119.2269897460938 72.04769134521484 127.8726272583008 C 65.77417755126953 136.5555572509766 61.08186721801758 146.5098724365234 58.36217498779297 157.2064056396484 C 55.63587951660156 167.9288635253906 54.89766311645508 179.3739929199219 56.53098678588867 190.9957122802734 L 206.931396484375 1261.150024414062 C 208.5647125244141 1272.771850585938 212.3121643066406 1282.738525390625 217.6775512695312 1290.794067382812 C 223.0299072265625 1298.830078125 229.9808654785156 1304.946899414062 238.031494140625 1308.908569335938 C 246.0475158691406 1312.853515625 255.1408386230469 1314.6552734375 264.8197631835938 1314.094970703125 C 274.4442749023438 1313.537963867188 284.6373901367188 1310.645385742188 294.9212341308594 1305.209594726562 L 598.8493041992188 1144.55712890625 C 607.210205078125 1140.137817382812 614.8445434570312 1133.872192382812 621.4939575195312 1126.342163085938 C 628.1102294921875 1118.849853515625 633.7581787109375 1110.098388671875 638.1848754882812 1100.65234375 C 642.594970703125 1091.24169921875 645.7994995117188 1081.128295898438 647.5457763671875 1070.86083984375 C 649.2884521484375 1060.615112304688 649.5823364257812 1050.196655273438 648.1694946289062 1040.143676757812 L 518.0719604492188 114.4518203735352 C 516.6591186523438 104.3989562988281 513.5924682617188 95.08815765380859 509.2516479492188 86.84734344482422 C 504.9018249511719 78.58917999267578 499.2640991210938 71.38992309570312 492.716552734375 65.59100341796875 C 486.1441345214844 59.77017593383789 478.6452941894531 55.35181427001953 470.6021728515625 52.69119262695312 C 462.5186157226562 50.01719665527344 453.8770751953125 49.11592483520508 445.0692138671875 50.35517501831055 L 124.8940582275391 95.40332794189453 Z" stroke="none" fill="#8ec5ff"/>
    </g>
  </g>
</svg>
